<?xml version="1.0" encoding="utf-8"?>
<!-- Generator: Adobe Illustrator 16.0.0, SVG Export Plug-In . SVG Version: 6.00 Build 0)  -->
<!DOCTYPE svg PUBLIC "-//W3C//DTD SVG 1.1//EN" "http://www.w3.org/Graphics/SVG/1.1/DTD/svg11.dtd">
<svg version="1.1" id="Capa_1" xmlns="http://www.w3.org/2000/svg" xmlns:xlink="http://www.w3.org/1999/xlink" x="0px" y="0px"
	 width="42px" height="42px" viewBox="0 0 42 42" enable-background="new 0 0 42 42" xml:space="preserve">
<g>
	<path opacity="0.5" fill="#EC800E" d="M20.999,1.038c-11.033,0-19.98,8.947-19.98,19.98C1.019,32.056,9.966,41,20.999,41
		c11.035,0,19.982-8.944,19.982-19.981C40.981,9.985,32.034,1.038,20.999,1.038z"/>
	<path fill="#EC800E" d="M20.999,3.229C11.186,3.229,3.228,11.187,3.228,21c0,9.816,7.958,17.771,17.771,17.771
		c9.815,0,17.773-7.955,17.773-17.771C38.772,11.187,30.814,3.229,20.999,3.229z"/>
	<g>
		<defs>
			<path id="SVGID_1_" d="M20.999,3.229C11.186,3.229,3.228,11.187,3.228,21c0,9.816,7.958,17.771,17.771,17.771
				c9.815,0,17.773-7.955,17.773-17.771C38.772,11.187,30.814,3.229,20.999,3.229z"/>
		</defs>
		<clipPath id="SVGID_2_">
			<use xlink:href="#SVGID_1_"  overflow="visible"/>
		</clipPath>
		<path clip-path="url(#SVGID_2_)" fill="#FFFFFF" d="M27.896,25.916c1.244-0.684,2.1-1.99,2.1-3.506
			c0-2.213-1.802-4.012-4.015-4.012c-0.777,0-1.499,0.23-2.116,0.615c-0.367,1.469-0.949,2.875-1.708,4.096
			C24.31,23.514,26.287,24.496,27.896,25.916L27.896,25.916z M27.896,25.916"/>
		<path clip-path="url(#SVGID_2_)" fill="#FFFFFF" d="M36.203,20.891c0-0.463-0.377-0.838-0.838-0.838h-1.722
			c-0.15-0.486-0.347-0.949-0.582-1.391l1.222-1.221c0.158-0.156,0.246-0.371,0.246-0.592c0-0.225-0.088-0.436-0.246-0.594
			l-2.147-2.148c-0.163-0.164-0.379-0.244-0.592-0.244c-0.216,0-0.431,0.08-0.593,0.244l-1.222,1.221
			c-0.441-0.234-0.903-0.43-1.393-0.576v-1.725c0-0.461-0.373-0.836-0.836-0.836h-3.037c-0.203,0-0.381,0.082-0.528,0.201
			c0.258,0.934,0.396,1.943,0.396,3.023c0,0.688-0.054,1.381-0.153,2.072c0.566-0.209,1.167-0.338,1.804-0.338
			c2.899,0,5.263,2.359,5.263,5.26c0,1.855-0.97,3.479-2.422,4.416c1.058,1.158,1.898,2.535,2.442,4.076
			c0.093,0.031,0.187,0.055,0.279,0.055c0.215,0,0.429-0.08,0.593-0.246l2.148-2.146c0.157-0.158,0.244-0.371,0.244-0.594
			s-0.087-0.436-0.244-0.594l-1.224-1.219c0.235-0.441,0.433-0.906,0.582-1.393h1.722c0.223,0,0.438-0.088,0.595-0.246
			c0.155-0.156,0.245-0.369,0.245-0.592L36.203,20.891z M36.203,20.891"/>
		<g clip-path="url(#SVGID_2_)">
			<defs>
				<path id="SVGID_3_" d="M28.425,32.144c-1.277-3.764-4.656-6.35-8.556-6.701c-1.304,1.382-2.921,2.26-4.753,2.26
					c-1.829,0-3.446-0.878-4.75-2.26c-3.903,0.352-7.279,2.938-8.56,6.702L1.64,36.406C5.098,39.905,9.896,42,15.204,42
					c5.223,0,9.954-2.024,13.398-5.427L28.425,32.144z M15.189,40.316c-4.396,0-8.371-1.8-11.234-4.699l0.138-3.293
					c1.06-3.116,2.622-4.859,5.855-5.151c1.08,1.146,3.653,2.595,5.17,2.595s4.161-1.345,5.242-2.489
					c3.229,0.291,4.722,1.93,5.78,5.046l0.146,3.432C23.434,38.574,19.516,40.316,15.189,40.316z"/>
			</defs>
			<defs>
				<path id="SVGID_4_" d="M8.776,15c0,6,2.841,9.671,6.34,9.671c3.505,0,6.342-3.671,6.342-9.671C21.458,7,8.776,7,8.776,15z
					 M15.121,23.146c-2.725,0-4.942-4.146-4.942-8.146c0-6,9.876-6,9.876,0C20.055,19,17.851,23.146,15.121,23.146z"/>
			</defs>
			<use xlink:href="#SVGID_3_"  overflow="visible" fill="#FFFFFF"/>
			<use xlink:href="#SVGID_4_"  overflow="visible" fill="#FFFFFF"/>
			<clipPath id="SVGID_5_">
				<use xlink:href="#SVGID_3_"  overflow="visible"/>
			</clipPath>
			<clipPath id="SVGID_6_" clip-path="url(#SVGID_5_)">
				<use xlink:href="#SVGID_4_"  overflow="visible"/>
			</clipPath>
			<g clip-path="url(#SVGID_6_)">
				<defs>
					<path id="SVGID_7_" d="M15.12,3.388c-11.01,0-19.936,8.927-19.936,19.935c0,11.012,8.926,19.937,19.936,19.937
						c11.011,0,19.938-8.925,19.938-19.937C35.058,12.314,26.131,3.388,15.12,3.388z"/>
				</defs>
				<use xlink:href="#SVGID_7_"  overflow="visible" fill="#FFFFFF"/>
				<clipPath id="SVGID_8_">
					<use xlink:href="#SVGID_7_"  overflow="visible"/>
				</clipPath>
			</g>
		</g>
	</g>
</g>
</svg>
