<?xml version="1.0" encoding="utf-8"?>
<!-- Generator: Adobe Illustrator 16.0.0, SVG Export Plug-In . SVG Version: 6.00 Build 0)  -->
<!DOCTYPE svg PUBLIC "-//W3C//DTD SVG 1.1//EN" "http://www.w3.org/Graphics/SVG/1.1/DTD/svg11.dtd">
<svg version="1.1" id="Capa_1" xmlns="http://www.w3.org/2000/svg" xmlns:xlink="http://www.w3.org/1999/xlink" x="0px" y="0px"
	 width="30px" height="30px" viewBox="0 0 30 30" enable-background="new 0 0 30 30" xml:space="preserve">
<path d="M19.629,27.999"/>
<g>
	<polygon points="6.311,27.389 2.61,23.688 10.149,16.15 9,15 0,23.999 6,30 15,21 13.85,19.85 	"/>
	<polygon points="23.688,2.611 27.389,6.311 19.85,13.85 20.999,15 30,6 23.999,0 15,9 16.15,10.15 	"/>
	<polygon points="30,23.999 19.855,13.856 18.705,15.006 27.203,23.504 23.504,27.203 15.005,18.705 13.856,19.855 23.999,30 	"/>
	<polygon points="2.796,6.496 6.496,2.797 14.993,11.294 16.144,10.144 6,0 0,6 10.143,16.143 11.294,14.994 	"/>
</g>
</svg>
